<svg width="25" height="24" viewBox="0 0 25 24" fill="none" xmlns="http://www.w3.org/2000/svg">
<path d="M12.5 16H7.5V8H12.5V16ZM5.5 8H0.5V16H5.5V8ZM12.5 5V2C12.5 0.895 11.605 0 10.5 0H9.5C8.395 0 7.5 0.895 7.5 2V5H12.5ZM7.5 19V22C7.5 23.105 8.395 24 9.5 24H10.5C11.605 24 12.5 23.105 12.5 22V19H7.5ZM0.5 19V22C0.5 23.105 1.395 24 2.5 24H3.5C4.605 24 5.5 23.105 5.5 22V19H0.5ZM5.5 5V2C5.5 0.895 4.605 0 3.5 0H2.5C1.395 0 0.5 0.895 0.5 2V5H5.5ZM19.622 7.237L14.86 8.761L17.49 16.949L22.252 15.425L19.622 7.237ZM18.707 4.38L17.715 1.391C17.378 0.339 16.252 -0.241 15.2 0.096L14.248 0.401C13.196 0.738 12.616 1.864 12.953 2.916L13.945 5.905L18.707 4.38ZM18.404 19.806L19.243 22.609C19.58 23.661 20.706 24.241 21.758 23.904L22.71 23.599C23.762 23.262 24.342 22.136 24.005 21.084L23.166 18.281L18.404 19.806Z" fill="white"/>
</svg>
