<svg width="1170" height="376" viewBox="0 0 1170 376" fill="none" xmlns="http://www.w3.org/2000/svg">
<path fill-rule="evenodd" clip-rule="evenodd" d="M560.274 4.65737C554.475 12.127 552.372 19.177 553.112 28.6845C554.22 42.9349 563.178 54.3533 577.6 59.8925L584.613 62.5869L583.672 69.5015C583.151 73.3059 582.002 77.0479 581.116 77.8172C579.051 79.6107 579.025 85.0732 581.074 86.1741C584.036 87.7646 582.708 92.3578 578.924 93.6069C573.629 95.356 568.51 101.546 568.51 106.203C568.51 111.009 572.204 117.594 575.519 118.699C579.433 120.004 578.437 121.661 568.618 130.188C560.678 137.084 555.063 140.113 530.535 150.727C509.993 159.617 499.161 165.184 492.661 170.195C482.745 177.837 472.817 189.607 469.482 197.672C468.32 200.486 466.805 202.787 466.114 202.787C464.132 202.787 464.653 193.963 466.744 192.148C468.209 190.876 468.209 190.511 466.744 190.511C465.679 190.511 464.859 188.651 464.859 186.231C464.859 183.134 463.124 180.316 458.577 176.032C455.122 172.777 452.295 169.143 452.295 167.957C452.295 166.771 451.578 166.186 450.7 166.657C449.822 167.129 449.463 168.021 449.904 168.64C450.345 169.26 447.529 172.562 443.648 175.982C435.998 182.721 436.185 182.044 436.291 202.445C436.337 211.292 435.871 213.697 434.114 213.697C432.616 213.697 431.88 212.157 431.88 209.019C431.88 205.204 431.226 204.259 428.345 203.905C425.276 203.526 424.911 202.842 425.561 198.694C427.824 184.288 424.195 176.464 412.281 170.071C409.241 168.438 406.752 166.276 406.752 165.266C406.752 164.255 405.748 162.557 404.523 161.494C403.296 160.428 401.621 155.32 400.796 150.143L399.301 140.729L398.914 148.913C398.701 153.413 398.583 157.483 398.651 157.957C398.718 158.43 397.388 159.905 395.695 161.237C394.003 162.568 392.618 164.442 392.618 165.403C392.618 166.362 389.869 168.864 386.512 170.96C375.682 177.721 373.321 182.077 374.122 193.819C374.772 203.344 374.601 204.046 371.546 204.426C369.42 204.69 368.437 205.671 368.74 207.229C368.994 208.548 368.486 210.695 367.609 212.002C366.45 213.731 366.002 210.783 365.967 201.195C365.933 191.832 366.488 187.845 367.882 187.437C369.451 186.979 369.451 186.448 367.878 184.793C366.403 183.239 365.992 174.621 366.232 150.346C366.543 119.061 366.445 117.895 363.3 115.712C361.511 114.469 359.27 112.224 358.32 110.724C357.015 108.663 356.58 108.521 356.544 110.146C356.519 111.327 354.675 113.78 352.449 115.596L348.402 118.897L349.51 136.283C350.311 148.859 350.105 154.203 348.768 155.601C347.507 156.923 347.443 157.815 348.567 158.419C349.51 158.925 350.215 164.314 350.215 171.006C350.215 180.536 349.705 183.053 347.467 184.565C345.052 186.196 345.009 186.574 347.105 187.678C349.006 188.675 349.433 191.535 349.195 201.656C349.032 208.654 348.842 218.828 348.772 224.268C348.67 232.155 348.162 234.156 346.259 234.156C344.544 234.156 344.103 233.197 344.688 230.746C345.136 228.871 345.877 225.779 346.333 223.877C347.991 216.964 344.297 210.053 335.27 203.178C330.556 199.587 326.689 196.083 326.678 195.393C326.667 194.701 325.615 193.134 324.34 191.911C321.8 189.475 320.784 185.882 320.276 177.554C320.003 173.053 319.751 173.591 318.829 180.628C318.201 185.425 316.577 190.246 315.118 191.646C313.691 193.015 312.523 195.03 312.523 196.121C312.523 197.214 310.581 199.109 308.205 200.335C296.445 206.406 291.958 214.331 293.681 225.992L294.594 232.169L288.622 229.603C281.615 226.591 274.169 227.297 267.924 231.563L263.839 234.353V229.754C263.839 227.224 264.687 224.418 265.723 223.518C267.189 222.245 267.189 221.517 265.723 220.244C263.701 218.488 263.041 199.843 264.943 198.19C265.551 197.663 265.919 193.751 265.765 189.497C265.524 182.879 264.797 181.166 260.734 177.639L255.987 173.514L251.239 177.639C247.176 181.166 246.449 182.879 246.208 189.497C246.054 193.751 246.422 197.663 247.03 198.19C248.983 199.887 248.265 218.488 246.171 220.414C244.601 221.86 244.601 222.347 246.171 222.846C247.461 223.258 248.134 226.455 248.134 232.174V240.874L239.104 232.923C232.749 227.325 227.748 224.283 222.221 222.647C206.921 218.123 206.567 217.836 206.057 209.513C205.653 202.961 206.101 201.596 209.59 198.751C214.16 195.022 214.924 188.479 211.279 184.294C209.132 181.828 208.968 182.038 208.922 187.343C208.858 194.661 203.101 199.205 194.946 198.377L189.619 197.837L193.138 200.313C195.073 201.674 198.382 202.787 200.491 202.787C204.127 202.787 204.301 203.154 203.85 209.902C203.332 217.665 202.504 218.347 189.242 221.933C177.659 225.064 169.691 231.093 160.747 243.494C160.559 243.756 158.406 242.942 155.96 241.688C151.336 239.315 147.624 234.019 147.624 229.792C147.624 228.441 146.918 227.336 146.054 227.336C145.19 227.336 144.483 228.441 144.483 229.792C144.483 234.102 140.864 239.107 135.56 242.125C132.728 243.737 129.968 246.593 129.426 248.471C128.211 252.671 128.24 252.671 119.915 248.435C112.177 244.496 110.01 241.688 109.751 235.269C109.584 231.155 109.349 231.4 107.147 237.972L104.727 245.198L90.2828 251.177C72.719 258.45 66.9849 263.569 67.8271 271.228C68.2388 274.986 67.796 276.436 66.2317 276.436C64.5506 276.436 64.158 274.22 64.4832 266.548C64.9216 256.176 62.6447 248.552 58.7171 247.243C57.4459 246.819 55.4033 244.468 54.1771 242.019C52.4995 238.666 51.934 238.261 51.8864 240.379C51.8536 241.928 49.7055 244.957 47.1139 247.113C44.5231 249.269 42.4028 252.146 42.4028 253.505C42.4028 254.865 41.7905 255.978 41.0425 255.978C40.2937 255.978 40.0403 260.345 40.4804 265.685L41.2795 275.39L33.2045 268.189C27.2144 262.849 25.0871 259.9 24.9669 256.779L24.8069 252.568L23.2072 256.888C22.3277 259.262 18.1596 264.396 13.944 268.294C7.48956 274.266 6.28237 276.218 6.28237 280.683C6.28237 285.073 5.74364 285.983 3.14075 285.983C0.0622618 285.983 0 286.893 0 330.992V376H1170V330.992C1170 287.132 1169.92 285.983 1166.9 285.983C1164.8 285.983 1164.1 285.33 1164.73 283.935C1166.45 280.028 1163.57 274.855 1155.81 267.939C1150.07 262.819 1147.97 259.88 1147.85 256.779L1147.69 252.568L1145.99 257.215C1145.04 259.769 1141.18 264.632 1137.38 268.018L1130.5 274.178L1130.83 266.101C1131.16 258.244 1127.34 247.795 1124.14 247.795C1123.42 247.795 1121.44 245.8 1119.72 243.362C1118.02 240.924 1116.61 239.888 1116.61 241.061C1116.61 242.234 1114.48 244.957 1111.89 247.113C1109.3 249.269 1107.18 252.146 1107.18 253.505C1107.18 254.865 1106.58 255.978 1105.84 255.978C1105.11 255.978 1104.85 260.581 1105.27 266.207C1105.73 272.523 1105.43 276.436 1104.46 276.436C1103.6 276.436 1102.9 274.088 1102.9 271.216C1102.9 263.046 1098.94 259.384 1082.65 252.455C1066.5 245.582 1063.27 242.8 1063.08 235.557C1062.96 230.93 1062.87 231.014 1060.58 237.763C1058.46 243.976 1057.31 245.198 1050.48 248.423C1043.3 251.816 1042.7 251.896 1041.77 249.59C1041.21 248.227 1037.33 244.211 1033.14 240.664C1026.49 235.041 1025.49 233.473 1025.34 228.389L1025.16 222.563L1024.06 227.336C1022.62 233.58 1019.81 237.947 1014.86 241.65L1010.83 244.657L1006 238.482C999.204 229.786 991.041 224.583 978.814 221.14C967.468 217.948 966.309 216.661 965.998 206.878C965.86 202.465 966.206 202.093 970.65 201.956C977.568 201.74 980.638 198.694 973.936 198.694C966.387 198.694 960.602 193.204 961.458 186.847L962.115 181.974L959.262 185.03C955.344 189.236 955.699 193.652 960.343 198.446C963.361 201.563 964.26 204.027 964.243 209.12C964.217 217.563 963.421 218.527 954.843 220.487C944.846 222.776 935.602 227.756 929.073 234.385L923.453 240.089L923.721 210.563L923.989 181.038L919.786 177.656C917.477 175.797 915.566 173.479 915.54 172.505C915.506 171.439 914.848 171.69 913.88 173.135C912.998 174.454 910.49 177.078 908.32 178.963L904.376 182.392L905.483 201.455C906.391 216.961 906.21 220.517 904.497 220.517C902.863 220.517 902.811 220.881 904.272 222.154C905.31 223.054 906.158 226.103 906.158 228.932V234.074L900.269 230.592C895.461 227.749 893.247 227.268 888.18 227.965C884.766 228.436 881.056 229.482 879.934 230.29C877.402 232.115 877.535 232.523 877.238 221.881C876.947 211.5 874.697 207.903 864.532 201.562C860.652 199.142 857.477 196.481 857.477 195.649C857.477 194.817 856.411 193.114 855.112 191.865C853.809 190.616 852.318 186.886 851.796 183.575C850.474 175.177 849.624 175.15 849.624 183.508C849.624 188.551 848.944 190.824 847.268 191.382C845.973 191.813 844.913 193.272 844.913 194.621C844.913 196.008 841.448 199.236 836.947 202.044C826.736 208.415 823.988 213.852 825.096 225.483C825.764 232.491 825.485 234.156 823.639 234.156C821.731 234.156 821.356 230.36 821.356 211.083C821.356 193.841 821.852 187.866 823.319 187.437C824.869 186.984 824.848 186.407 823.224 184.699C821.791 183.189 821.26 178.56 821.472 169.428C821.638 162.222 821.327 155.936 820.781 155.46C819.295 154.169 819.578 136.229 821.097 135.413C821.819 135.026 822.171 131.274 821.882 127.074C821.483 121.317 820.332 118.329 817.2 114.921L813.046 110.399L808.441 114.955L803.834 119.51L804.954 136.579C805.768 148.973 805.564 154.179 804.215 155.59C802.949 156.918 802.88 157.816 804.004 158.419C806.611 159.818 805.999 178.306 803.192 182.983C801.616 185.606 801.342 187.217 802.416 187.529C803.461 187.832 803.982 192.923 803.817 201.195C803.671 208.446 803.275 212.078 802.937 209.265C802.457 205.281 801.642 204.15 799.248 204.15C796.435 204.15 796.206 203.263 796.518 193.58C796.911 181.265 795.303 178.332 784.439 171.556C780.558 169.136 777.382 166.368 777.382 165.406C777.382 164.443 776.137 162.677 774.615 161.481C772.767 160.029 771.723 156.935 771.474 152.176C770.969 142.523 769.531 141.834 769.531 151.246C769.531 156.303 768.75 159.37 767.174 160.506C765.879 161.44 764.819 163.34 764.819 164.729C764.819 166.118 762.875 168.14 760.5 169.22C758.125 170.3 753.707 173.42 750.684 176.154C745.286 181.035 745.188 181.328 745.2 192.636C745.21 202.561 744.844 204.15 742.546 204.15C740.6 204.15 739.75 205.529 739.393 209.265C739.065 212.714 738.138 214.38 736.55 214.38C734.603 214.38 734.146 211.545 733.915 198.025L733.636 181.671L728.419 177.664C725.55 175.46 722.373 171.771 721.357 169.468C720.343 167.164 719.46 166.318 719.394 167.586C719.329 168.854 716.095 172.693 712.208 176.119C704.599 182.822 704.729 182.366 704.891 201.423L704.979 211.651L701.427 202.103C697.488 191.519 694.57 186.998 686.459 178.918C674.599 167.106 656.245 156.556 632.899 148.135C619.696 143.373 604.257 134.274 597.843 127.475C594.666 124.109 592.067 120.989 592.067 120.543C592.067 120.095 593.834 118.074 595.994 116.05C601.38 111.002 601.324 103.517 595.853 97.8722C593.617 95.5643 590.79 93.6753 589.572 93.6753C586.828 93.6753 586.63 87.8285 589.249 84.1851C590.795 82.0359 590.65 81.0808 588.464 78.982C586.703 77.2923 585.785 74.112 585.785 69.6993V62.9877L595.678 62.8095C607.611 62.5937 618.901 58.1366 626.464 50.6572C629.246 47.9049 631.265 45.4278 630.947 45.1533C630.632 44.8781 627.516 45.8827 624.023 47.3822C609.352 53.6862 590.648 51.6649 578.23 42.4326C566.544 33.747 560.722 19.6124 563.761 7.30666C564.681 3.58126 565.171 0.305547 564.85 0.0250507C564.529 -0.253941 562.47 1.82985 560.274 4.65737ZM361.208 127.78C361.208 130.82 355.453 132.299 354.248 129.568C353.764 128.471 354.121 126.352 355.041 124.857C356.379 122.687 357.169 122.466 358.963 123.759C360.197 124.65 361.208 126.459 361.208 127.78ZM816.644 128.62C816.644 130.953 815.763 131.863 813.504 131.863C811.102 131.863 810.362 130.953 810.362 128C810.362 125.873 810.827 123.73 811.395 123.237C813.183 121.685 816.644 125.235 816.644 128.62ZM453.552 188.056C454.588 188.956 455.436 191.718 455.436 194.193C455.436 198.284 455.007 198.694 450.725 198.694C446.713 198.694 446.013 198.173 446.013 195.194C446.013 191.395 448.539 186.419 450.466 186.419C451.127 186.419 452.515 187.156 453.552 188.056ZM712.994 193.319C712.994 197.187 712.334 198.694 710.638 198.694C708.192 198.694 707.373 192.794 709.232 188.585C710.84 184.945 712.994 187.656 712.994 193.319ZM722.102 188.056C723.139 188.956 723.987 191.718 723.987 194.193C723.987 198.284 723.558 198.694 719.275 198.694C714.993 198.694 714.564 198.284 714.564 194.193C714.564 190.13 716.813 186.419 719.275 186.419C719.794 186.419 721.066 187.156 722.102 188.056ZM730.245 194.261C730.261 197.302 729.529 198.694 727.913 198.694C726.229 198.694 725.557 197.203 725.557 193.466C725.557 190.59 726.039 187.82 726.628 187.308C728.335 185.825 730.218 189.442 730.245 194.261ZM444.443 193.239C444.443 196.239 443.736 198.694 442.872 198.694C442.008 198.694 441.302 196.239 441.302 193.239C441.302 190.238 442.008 187.783 442.872 187.783C443.736 187.783 444.443 190.238 444.443 193.239ZM461.719 193.239C461.719 196.239 461.011 198.694 460.147 198.694C459.284 198.694 458.577 196.239 458.577 193.239C458.577 190.238 459.284 187.783 460.147 187.783C461.011 187.783 461.719 190.238 461.719 193.239ZM258.6 191.284C259.91 194.246 256.586 197.032 254.207 194.967C252.197 193.221 253.442 189.147 255.987 189.147C256.905 189.147 258.08 190.108 258.6 191.284ZM917.157 192.637C917.157 193.718 915.739 194.602 914.01 194.602C910.585 194.602 909.669 191.113 912.833 190.126C915.497 189.298 917.157 190.265 917.157 192.637ZM56.4817 264.071C57.3758 265.522 58.1074 268.898 58.1074 271.573C58.1074 276.068 57.7494 276.436 53.3963 276.436C48.8105 276.436 48.6843 276.259 48.6843 269.845C48.6843 266.218 49.1556 262.842 49.7324 262.344C51.7057 260.627 54.8568 261.435 56.4817 264.071ZM1121.26 264.071C1122.15 265.522 1122.89 268.898 1122.89 271.573C1122.89 276.068 1122.53 276.436 1118.18 276.436C1113.59 276.436 1113.46 276.259 1113.46 269.845C1113.46 266.218 1113.93 262.842 1114.51 262.344C1116.48 260.627 1119.64 261.435 1121.26 264.071ZM45.5435 269.617C45.5435 273.368 44.837 276.436 43.9731 276.436C42.2411 276.436 41.7776 265.16 43.45 263.707C45.3239 262.08 45.5435 262.702 45.5435 269.617ZM62.8185 269.617C62.8185 273.368 62.112 276.436 61.2482 276.436C59.5161 276.436 59.0526 265.16 60.725 263.707C62.5989 262.08 62.8185 262.702 62.8185 269.617ZM1110.32 269.617C1110.32 273.368 1109.61 276.436 1108.75 276.436C1107.02 276.436 1106.55 265.16 1108.23 263.707C1110.1 262.08 1110.32 262.702 1110.32 269.617ZM1127.6 269.617C1127.6 273.368 1126.89 276.436 1126.03 276.436C1124.3 276.436 1123.83 265.16 1125.5 263.707C1127.38 262.08 1127.6 262.702 1127.6 269.617Z" fill="black" fill-opacity="0.05"/>
</svg>
